/* XPM */
static char * sample_xpm[] = {
"15 19 6 1",
"       c None",
".      c #FFFFFF",
"+      c #000000",
"@      c #99FFCC",
"#      c #66CCCC",
"$      c #339966",
/* This is the comment that never ends, it just goes on and on again...
   Based on test case provided by Marco Ivaldi for CVE-2022-46285
".+++++++++++++.",
"+@@@@@@@@@@@@#+",
"+@###########$+",
"+@###....####$+",
"+@##......###$+",
"+@#...$$...##$+",
"+@#..$$##..$#$+",
"+@##$$##...$#$+",
"+@#####...$$#$+",
"+@####...$$##$+",
"+@####..$$###$+",
"+@####..$####$+",
"+@#####$$####$+",
"+@####..#####$+",
"+@####..$####$+",
"+@#####$$####$+",
"+@###########$+",
"+#$$$$$$$$$$$$+",
".+++++++++++++."};
